<?xml version="1.0" encoding="UTF-8" standalone="no"?>
<!-- Created with Inkscape (http://www.inkscape.org/) -->

<svg
   xmlns:dc="http://purl.org/dc/elements/1.1/"
   xmlns:cc="http://creativecommons.org/ns#"
   xmlns:rdf="http://www.w3.org/1999/02/22-rdf-syntax-ns#"
   xmlns:svg="http://www.w3.org/2000/svg"
   xmlns="http://www.w3.org/2000/svg"
   xmlns:sodipodi="http://sodipodi.sourceforge.net/DTD/sodipodi-0.dtd"
   xmlns:inkscape="http://www.inkscape.org/namespaces/inkscape"
   width="14.689861mm"
   height="14.564374mm"
   viewBox="0 0 14.689861 14.564374"
   version="1.1"
   id="svg79241"
   inkscape:version="0.92.2pre0 (973e216, 2017-07-25)"
   sodipodi:docname="facebook.svg">
  <defs
     id="defs79235" />
  <sodipodi:namedview
     id="base"
     pagecolor="#ffffff"
     bordercolor="#666666"
     borderopacity="1.0"
     inkscape:pageopacity="0.0"
     inkscape:pageshadow="2"
     inkscape:zoom="0.35"
     inkscape:cx="27.760359"
     inkscape:cy="27.523245"
     inkscape:document-units="mm"
     inkscape:current-layer="layer1"
     showgrid="false"
     fit-margin-top="0"
     fit-margin-left="0"
     fit-margin-right="0"
     fit-margin-bottom="0"
     inkscape:window-width="1920"
     inkscape:window-height="1052"
     inkscape:window-x="0"
     inkscape:window-y="0"
     inkscape:window-maximized="1" />
  <metadata
     id="metadata79238">
    <rdf:RDF>
      <cc:Work
         rdf:about="">
        <dc:format>image/svg+xml</dc:format>
        <dc:type
           rdf:resource="http://purl.org/dc/dcmitype/StillImage" />
        <dc:title></dc:title>
      </cc:Work>
    </rdf:RDF>
  </metadata>
  <g
     inkscape:label="Capa 1"
     inkscape:groupmode="layer"
     id="layer1"
     transform="translate(-98.488405,-141.55115)">
    <g
       id="g35514"
       transform="matrix(0.35277777,0,0,-0.35277777,110.9346,155.94602)">
      <path
         d="m 0,0 h -3.356 -13.227 -11.164 c -1.733,0 -3.297,0.217 -4.713,1.386 -1.532,1.263 -1.969,3.136 -1.969,5.016 v 24.097 c 0,3.535 -0.544,7.607 3.371,9.416 1.133,0.523 2.467,0.406 3.686,0.406 h 5.072 22.224 c 3.122,0 5.681,-2.617 5.681,-5.725 V 31.974 19.25 5.61 C 5.5,2.485 3.202,0 0,0 m 1.51,40.656 c -0.896,0.215 -1.902,0.133 -2.818,0.133 h -24.638 c -3.145,0 -6.124,0.074 -8.208,-2.809 -1.593,-2.203 -1.03,-5.88 -1.03,-8.44 V 5.979 c 0,-3.827 2.791,-6.447 6.568,-6.447 h 10.049 15.69 c 0.976,0 1.956,-0.03 2.931,0.003 3.43,0.115 6.189,2.678 6.306,6.156 v 21.497 7.524 c 0,2.926 -2.062,5.277 -4.85,5.944"
         style="fill:#ef3e3a;fill-opacity:1;fill-rule:nonzero;stroke:none"
         id="path35516"
         inkscape:connector-curvature="0" />
    </g>
    <g
       id="g35518"
       transform="matrix(0.35277777,0,0,-0.35277777,106.4515,146.04516)">
      <path
         d="m 0,0 c -1.035,-1.043 -0.539,-3.795 -0.539,-5.108 0,-0.128 0.113,-0.17 0.23,-0.17 H 2.19 3.797 4.37 c 0.025,0 0.045,0 0.066,-0.001 L 3.841,-9.891 h -3.859 c -0.128,0 -0.521,-0.07 -0.521,-0.263 v -12.683 h -4.379 -0.078 v 0.339 2.262 10.174 c 0,0.128 -0.113,0.171 -0.231,0.171 h -2.321 -1.509 -0.297 v 4.613 h 3.836 c 0.129,0 0.522,0.069 0.522,0.262 0,3.439 -0.52,7.745 3.161,9.561 C -0.481,5.214 1.077,5.129 2.539,5.08 3.181,5.059 3.82,5.014 4.459,4.957 4.719,4.934 4.633,5.011 4.633,4.578 V 0.846 C 3.09,0.901 1.107,1.114 0,0 M 5.238,5.337 C 1.891,5.738 -1.975,5.962 -4.354,3.143 -6.156,1.007 -5.777,-2.209 -5.751,-4.845 h -3.833 c -0.13,0 -0.521,-0.07 -0.521,-0.263 v -5.046 c 0,-0.128 0.113,-0.171 0.23,-0.171 h 4.126 c 10e-4,-0.013 10e-4,-0.02 10e-4,-0.034 v -0.727 -2.339 -9.675 c 0,-0.129 0.113,-0.171 0.23,-0.171 h 5.209 c 0.129,0 0.522,0.07 0.522,0.263 v 12.683 h 3.784 c 0.216,-0.021 0.54,0.095 0.562,0.263 0.217,1.682 0.434,3.364 0.651,5.046 0.017,0.128 -0.128,0.171 -0.231,0.171 H 1.908 0.213 v 0.749 c 0,1.16 -0.247,2.756 0.3,3.825 0.537,1.051 3.335,0.67 4.35,0.671 0.129,0 0.522,0.07 0.522,0.263 v 4.513 c 0,0.09 -0.051,0.149 -0.147,0.161"
         style="fill:#ef3e3a;fill-opacity:1;fill-rule:nonzero;stroke:none"
         id="path35520"
         inkscape:connector-curvature="0" />
    </g>
  </g>
</svg>
