<?xml version="1.0" encoding="UTF-8" standalone="no"?>
<!-- Created with Inkscape (http://www.inkscape.org/) -->

<svg
   xmlns:dc="http://purl.org/dc/elements/1.1/"
   xmlns:cc="http://creativecommons.org/ns#"
   xmlns:rdf="http://www.w3.org/1999/02/22-rdf-syntax-ns#"
   xmlns:svg="http://www.w3.org/2000/svg"
   xmlns="http://www.w3.org/2000/svg"
   xmlns:sodipodi="http://sodipodi.sourceforge.net/DTD/sodipodi-0.dtd"
   xmlns:inkscape="http://www.inkscape.org/namespaces/inkscape"
   width="12.000089mm"
   height="10.230556mm"
   viewBox="0 0 12.000089 10.230556"
   version="1.1"
   id="svg75880"
   inkscape:version="0.92.2pre0 (973e216, 2017-07-25)"
   sodipodi:docname="en.svg"
   inkscape:export-filename="/home/marcelo/MARCELO/CODE/PABLO/pablo_bio/en.svg.png"
   inkscape:export-xdpi="96"
   inkscape:export-ydpi="96">
  <defs
     id="defs75874">
    <clipPath
       clipPathUnits="userSpaceOnUse"
       id="clipPath29478">
      <path
         d="m 920.645,739 -6.002,-10.5 6.002,-10.5 h 12.007 l 6.003,10.5 -6.003,10.5 z"
         id="path29476"
         inkscape:connector-curvature="0" />
    </clipPath>
    <clipPath
       clipPathUnits="userSpaceOnUse"
       id="clipPath29722">
      <path
         d="m 917.505,740.887 h 19.561 v -13.748 h -19.561 z"
         id="path29720"
         inkscape:connector-curvature="0" />
    </clipPath>
    <clipPath
       clipPathUnits="userSpaceOnUse"
       id="clipPath29726">
      <path
         d="m 927.284,740.836 c -5.382,0 -9.745,-3.055 -9.745,-6.822 v 0 c 0,-3.77 4.363,-6.825 9.745,-6.825 v 0 c 5.382,0 9.747,3.055 9.747,6.825 v 0 c 0,3.767 -4.365,6.822 -9.747,6.822 z"
         id="path29724"
         inkscape:connector-curvature="0" />
    </clipPath>
    <mask
       maskUnits="userSpaceOnUse"
       x="0"
       y="0"
       width="1"
       height="1"
       id="mask29746">
      <g
         id="g29770">
        <g
           clip-path="url(#clipPath29730)"
           id="g29768">
          <path
             d="m 917.505,740.887 h 19.562 v -13.748 h -19.562 z"
             style="fill:#000000;fill-opacity:1;fill-rule:nonzero;stroke:none"
             id="path29748"
             inkscape:connector-curvature="0" />
          <g
             id="g29766">
            <g
               id="g29750" />
            <g
               id="g29764">
              <g
                 clip-path="url(#clipPath29734)"
                 id="g29762">
                <g
                   id="g29760">
                  <g
                     clip-path="url(#clipPath29738)"
                     id="g29758">
                    <g
                       id="g29756">
                      <g
                         id="g29754">
                        <path
                           d="m 917.505,727.189 0.034,13.698 19.527,-0.051 -0.035,-13.697 z"
                           style="fill:url(#linearGradient29744);stroke:none"
                           id="path29752"
                           inkscape:connector-curvature="0" />
                      </g>
                    </g>
                  </g>
                </g>
              </g>
            </g>
          </g>
        </g>
      </g>
    </mask>
    <clipPath
       clipPathUnits="userSpaceOnUse"
       id="clipPath29730">
      <path
         d="m 917.505,740.887 h 19.561 v -13.748 h -19.561 z"
         id="path29728"
         inkscape:connector-curvature="0" />
    </clipPath>
    <clipPath
       clipPathUnits="userSpaceOnUse"
       id="clipPath29734">
      <path
         d="m 917.505,740.887 h 19.561 v -13.748 h -19.561 z"
         id="path29732"
         inkscape:connector-curvature="0" />
    </clipPath>
    <clipPath
       clipPathUnits="userSpaceOnUse"
       id="clipPath29738">
      <path
         d="m 917.505,727.189 0.034,13.698 19.527,-0.051 -0.035,-13.697 z"
         id="path29736"
         inkscape:connector-curvature="0" />
    </clipPath>
    <linearGradient
       x1="0"
       y1="0"
       x2="1"
       y2="0"
       gradientUnits="userSpaceOnUse"
       gradientTransform="matrix(0.0267334,10.424423,-10.424423,0.0267334,927.28125,727.25)"
       spreadMethod="pad"
       id="linearGradient29744">
      <stop
         style="stop-opacity:1;stop-color:#231f20"
         offset="0"
         id="stop29740" />
      <stop
         style="stop-opacity:1;stop-color:#ffffff"
         offset="1"
         id="stop29742" />
    </linearGradient>
    <clipPath
       clipPathUnits="userSpaceOnUse"
       id="clipPath29774">
      <path
         d="m 917.505,740.887 h 19.561 v -13.748 h -19.561 z"
         id="path29772"
         inkscape:connector-curvature="0" />
    </clipPath>
    <clipPath
       clipPathUnits="userSpaceOnUse"
       id="clipPath29778">
      <path
         d="m 917.505,727.189 0.034,13.698 19.527,-0.051 -0.035,-13.697 z"
         id="path29776"
         inkscape:connector-curvature="0" />
    </clipPath>
    <linearGradient
       x1="0"
       y1="0"
       x2="1"
       y2="0"
       gradientUnits="userSpaceOnUse"
       gradientTransform="matrix(0.0267334,10.424423,-10.424423,0.0267334,927.28125,727.25)"
       spreadMethod="pad"
       id="linearGradient29784">
      <stop
         style="stop-opacity:1;stop-color:#ffffff"
         offset="0"
         id="stop29780" />
      <stop
         style="stop-opacity:1;stop-color:#ffffff"
         offset="1"
         id="stop29782" />
    </linearGradient>
    <clipPath
       clipPathUnits="userSpaceOnUse"
       id="clipPath28550">
      <path
         d="m 918.144,714 -8.503,14.5 8.503,14.5 h 17.01 l 8.503,-14.5 -8.503,-14.5 z"
         id="path28548"
         inkscape:connector-curvature="0" />
    </clipPath>
    <radialGradient
       fx="0"
       fy="0"
       cx="0"
       cy="0"
       r="1"
       gradientUnits="userSpaceOnUse"
       gradientTransform="matrix(15.806244,0,0,-15.806244,926.64844,728.50391)"
       spreadMethod="pad"
       id="radialGradient28560">
      <stop
         style="stop-opacity:1;stop-color:#464647"
         offset="0"
         id="stop28556" />
      <stop
         style="stop-opacity:1;stop-color:#151515"
         offset="1"
         id="stop28558" />
    </radialGradient>
  </defs>
  <sodipodi:namedview
     id="base"
     pagecolor="#ffffff"
     bordercolor="#666666"
     borderopacity="1.0"
     inkscape:pageopacity="0.0"
     inkscape:pageshadow="2"
     inkscape:zoom="0.35"
     inkscape:cx="608.39161"
     inkscape:cy="-169.2381"
     inkscape:document-units="mm"
     inkscape:current-layer="layer1"
     showgrid="false"
     fit-margin-top="0"
     fit-margin-left="0"
     fit-margin-right="0"
     fit-margin-bottom="0"
     inkscape:window-width="1920"
     inkscape:window-height="1052"
     inkscape:window-x="0"
     inkscape:window-y="0"
     inkscape:window-maximized="1" />
  <metadata
     id="metadata75877">
    <rdf:RDF>
      <cc:Work
         rdf:about="">
        <dc:format>image/svg+xml</dc:format>
        <dc:type
           rdf:resource="http://purl.org/dc/dcmitype/StillImage" />
        <dc:title></dc:title>
      </cc:Work>
    </rdf:RDF>
  </metadata>
  <g
     inkscape:label="Capa 1"
     inkscape:groupmode="layer"
     id="layer1"
     transform="translate(207.08338,-93.825197)">
    <g
       transform="matrix(0.35277777,0,0,-0.35277777,-527.9845,355.93908)"
       id="g28544">
      <g
         id="g28546"
         clip-path="url(#clipPath28550)">
        <g
           id="g28552">
          <g
             id="g28554">
            <path
               d="m 918.144,714 -8.503,14.5 8.503,14.5 h 17.01 l 8.503,-14.5 -8.503,-14.5 z"
               style="fill:url(#radialGradient28560);stroke:none"
               id="path28562"
               inkscape:connector-curvature="0" />
          </g>
        </g>
      </g>
    </g>
    <g
       transform="matrix(0.35277777,0,0,-0.35277777,-527.9845,355.93908)"
       id="g29472">
      <g
         id="g29474"
         clip-path="url(#clipPath29478)">
        <g
           id="g29480"
           transform="translate(927.0107,715.7109)">
          <path
             d="m 0,0 c -7.02,0 -12.727,5.68 -12.864,12.391 -0.002,-0.086 -0.005,-0.174 -0.005,-0.26 0,-7.108 5.762,-12.869 12.869,-12.869 7.107,0 12.869,5.761 12.869,12.869 0,0.086 -10e-4,0.174 -0.003,0.26 C 12.727,5.68 7.021,0 0,0"
             style="fill:#ffffff;fill-opacity:1;fill-rule:nonzero;stroke:none"
             id="path29482"
             inkscape:connector-curvature="0" />
        </g>
        <g
           id="g29484"
           transform="translate(927.0107,741.0313)">
          <path
             d="m 0,0 c 7.021,0 12.727,-5.467 12.866,-12.178 0.002,0.088 0.003,0.174 0.003,0.26 0,7.107 -5.762,12.871 -12.869,12.871 -7.107,0 -12.869,-5.764 -12.869,-12.871 0,-0.086 0.003,-0.172 0.005,-0.26 C -12.727,-5.467 -7.02,0 0,0"
             style="fill:#ffffff;fill-opacity:1;fill-rule:nonzero;stroke:none"
             id="path29486"
             inkscape:connector-curvature="0" />
        </g>
        <path
           d="m 907.455,715.213 h 44.574 v 2 h -44.574 z"
           style="fill:#ca2027;fill-opacity:1;fill-rule:nonzero;stroke:none"
           id="path29488"
           inkscape:connector-curvature="0" />
        <path
           d="m 907.455,717.213 h 44.574 v 2 h -44.574 z"
           style="fill:#ffffff;fill-opacity:1;fill-rule:nonzero;stroke:none"
           id="path29490"
           inkscape:connector-curvature="0" />
        <path
           d="m 907.455,719.213 h 44.574 v 1.998 h -44.574 z"
           style="fill:#ca2027;fill-opacity:1;fill-rule:nonzero;stroke:none"
           id="path29492"
           inkscape:connector-curvature="0" />
        <path
           d="m 907.455,721.211 h 44.574 v 2 h -44.574 z"
           style="fill:#ffffff;fill-opacity:1;fill-rule:nonzero;stroke:none"
           id="path29494"
           inkscape:connector-curvature="0" />
        <path
           d="m 907.455,723.211 h 44.574 v 2.002 h -44.574 z"
           style="fill:#ca2027;fill-opacity:1;fill-rule:nonzero;stroke:none"
           id="path29496"
           inkscape:connector-curvature="0" />
        <path
           d="m 907.455,725.213 h 44.574 v 2 h -44.574 z"
           style="fill:#ffffff;fill-opacity:1;fill-rule:nonzero;stroke:none"
           id="path29498"
           inkscape:connector-curvature="0" />
        <path
           d="m 907.455,727.213 h 44.574 v 2 h -44.574 z"
           style="fill:#ca2027;fill-opacity:1;fill-rule:nonzero;stroke:none"
           id="path29500"
           inkscape:connector-curvature="0" />
        <path
           d="m 907.455,729.215 h 44.574 v 1.998 h -44.574 z"
           style="fill:#ffffff;fill-opacity:1;fill-rule:nonzero;stroke:none"
           id="path29502"
           inkscape:connector-curvature="0" />
        <path
           d="m 907.455,731.213 h 44.574 v 2.002 h -44.574 z"
           style="fill:#ca2027;fill-opacity:1;fill-rule:nonzero;stroke:none"
           id="path29504"
           inkscape:connector-curvature="0" />
        <path
           d="m 907.455,733.215 h 44.574 v 1.998 h -44.574 z"
           style="fill:#ffffff;fill-opacity:1;fill-rule:nonzero;stroke:none"
           id="path29506"
           inkscape:connector-curvature="0" />
        <path
           d="m 907.455,735.213 h 44.574 v 2.002 h -44.574 z"
           style="fill:#ca2027;fill-opacity:1;fill-rule:nonzero;stroke:none"
           id="path29508"
           inkscape:connector-curvature="0" />
        <path
           d="m 907.455,737.215 h 44.574 v 2 h -44.574 z"
           style="fill:#ffffff;fill-opacity:1;fill-rule:nonzero;stroke:none"
           id="path29510"
           inkscape:connector-curvature="0" />
        <path
           d="m 907.455,739.215 h 44.574 v 2 h -44.574 z"
           style="fill:#ca2027;fill-opacity:1;fill-rule:nonzero;stroke:none"
           id="path29512"
           inkscape:connector-curvature="0" />
        <path
           d="m 907.455,727.213 h 20.35 v 14.002 h -20.35 z"
           style="fill:#2b3561;fill-opacity:1;fill-rule:nonzero;stroke:none"
           id="path29514"
           inkscape:connector-curvature="0" />
        <g
           id="g29516"
           transform="translate(909.2891,739.6719)">
          <path
             d="M 0,0 0.173,-0.531 H 0.729 L 0.279,-0.857 0.45,-1.387 0,-1.059 l -0.45,-0.328 0.172,0.53 -0.451,0.326 h 0.556 z"
             style="fill:#ffffff;fill-opacity:1;fill-rule:nonzero;stroke:none"
             id="path29518"
             inkscape:connector-curvature="0" />
        </g>
        <g
           id="g29520"
           transform="translate(909.2891,737.3359)">
          <path
             d="M 0,0 0.173,-0.531 H 0.729 L 0.279,-0.855 0.45,-1.387 0,-1.061 l -0.45,-0.326 0.172,0.532 -0.451,0.324 h 0.556 z"
             style="fill:#ffffff;fill-opacity:1;fill-rule:nonzero;stroke:none"
             id="path29522"
             inkscape:connector-curvature="0" />
        </g>
        <g
           id="g29524"
           transform="translate(909.2891,734.9961)">
          <path
             d="M 0,0 0.173,-0.527 H 0.729 L 0.279,-0.854 0.45,-1.385 0,-1.057 l -0.45,-0.328 0.172,0.531 -0.451,0.327 h 0.556 z"
             style="fill:#ffffff;fill-opacity:1;fill-rule:nonzero;stroke:none"
             id="path29526"
             inkscape:connector-curvature="0" />
        </g>
        <g
           id="g29528"
           transform="translate(909.2891,732.6602)">
          <path
             d="M 0,0 0.173,-0.529 H 0.729 L 0.279,-0.857 0.45,-1.385 0,-1.059 l -0.45,-0.326 0.172,0.528 -0.451,0.328 h 0.556 z"
             style="fill:#ffffff;fill-opacity:1;fill-rule:nonzero;stroke:none"
             id="path29530"
             inkscape:connector-curvature="0" />
        </g>
        <g
           id="g29532"
           transform="translate(909.2891,730.3242)">
          <path
             d="M 0,0 0.173,-0.531 H 0.729 L 0.279,-0.855 0.45,-1.387 0,-1.059 l -0.45,-0.328 0.172,0.532 -0.451,0.324 h 0.556 z"
             style="fill:#ffffff;fill-opacity:1;fill-rule:nonzero;stroke:none"
             id="path29534"
             inkscape:connector-curvature="0" />
        </g>
        <g
           id="g29536"
           transform="translate(910.916,738.4395)">
          <path
             d="M 0,0 0.173,-0.529 H 0.729 L 0.278,-0.855 0.449,-1.385 0,-1.057 l -0.449,-0.328 0.171,0.53 -0.45,0.326 h 0.557 z"
             style="fill:#ffffff;fill-opacity:1;fill-rule:nonzero;stroke:none"
             id="path29538"
             inkscape:connector-curvature="0" />
        </g>
        <g
           id="g29540"
           transform="translate(910.916,736.1035)">
          <path
             d="M 0,0 0.173,-0.529 H 0.729 L 0.278,-0.855 0.449,-1.385 0,-1.059 l -0.449,-0.326 0.171,0.53 -0.45,0.326 h 0.557 z"
             style="fill:#ffffff;fill-opacity:1;fill-rule:nonzero;stroke:none"
             id="path29542"
             inkscape:connector-curvature="0" />
        </g>
        <g
           id="g29544"
           transform="translate(910.916,733.7656)">
          <path
             d="M 0,0 0.173,-0.529 H 0.729 L 0.278,-0.857 0.449,-1.385 0,-1.059 l -0.449,-0.326 0.171,0.528 -0.45,0.328 h 0.557 z"
             style="fill:#ffffff;fill-opacity:1;fill-rule:nonzero;stroke:none"
             id="path29546"
             inkscape:connector-curvature="0" />
        </g>
        <g
           id="g29548"
           transform="translate(910.916,731.4297)">
          <path
             d="M 0,0 0.173,-0.529 H 0.729 L 0.278,-0.857 0.449,-1.385 0,-1.059 l -0.449,-0.326 0.171,0.528 -0.45,0.328 h 0.557 z"
             style="fill:#ffffff;fill-opacity:1;fill-rule:nonzero;stroke:none"
             id="path29550"
             inkscape:connector-curvature="0" />
        </g>
        <g
           id="g29552"
           transform="translate(912.5664,739.6719)">
          <path
             d="M 0,0 0.171,-0.531 H 0.727 L 0.276,-0.857 0.449,-1.387 0,-1.059 l -0.451,-0.328 0.171,0.53 -0.449,0.326 h 0.556 z"
             style="fill:#ffffff;fill-opacity:1;fill-rule:nonzero;stroke:none"
             id="path29554"
             inkscape:connector-curvature="0" />
        </g>
        <g
           id="g29556"
           transform="translate(912.5664,737.3359)">
          <path
             d="M 0,0 0.171,-0.531 H 0.727 L 0.276,-0.855 0.449,-1.387 0,-1.061 l -0.451,-0.326 0.171,0.532 -0.449,0.324 h 0.556 z"
             style="fill:#ffffff;fill-opacity:1;fill-rule:nonzero;stroke:none"
             id="path29558"
             inkscape:connector-curvature="0" />
        </g>
        <g
           id="g29560"
           transform="translate(912.5664,734.9961)">
          <path
             d="M 0,0 0.171,-0.527 H 0.727 L 0.276,-0.854 0.449,-1.385 0,-1.057 l -0.451,-0.328 0.171,0.531 -0.449,0.327 h 0.556 z"
             style="fill:#ffffff;fill-opacity:1;fill-rule:nonzero;stroke:none"
             id="path29562"
             inkscape:connector-curvature="0" />
        </g>
        <g
           id="g29564"
           transform="translate(912.5664,732.6602)">
          <path
             d="M 0,0 0.171,-0.529 H 0.727 L 0.276,-0.857 0.449,-1.385 0,-1.059 l -0.451,-0.326 0.171,0.528 -0.449,0.328 h 0.556 z"
             style="fill:#ffffff;fill-opacity:1;fill-rule:nonzero;stroke:none"
             id="path29566"
             inkscape:connector-curvature="0" />
        </g>
        <g
           id="g29568"
           transform="translate(912.5664,730.3242)">
          <path
             d="M 0,0 0.171,-0.531 H 0.727 L 0.276,-0.855 0.449,-1.387 0,-1.059 l -0.451,-0.328 0.171,0.532 -0.449,0.324 h 0.556 z"
             style="fill:#ffffff;fill-opacity:1;fill-rule:nonzero;stroke:none"
             id="path29570"
             inkscape:connector-curvature="0" />
        </g>
        <g
           id="g29572"
           transform="translate(914.1924,738.4395)">
          <path
             d="M 0,0 0.173,-0.529 H 0.728 L 0.278,-0.855 0.45,-1.385 0,-1.057 l -0.45,-0.328 0.173,0.53 -0.45,0.326 h 0.554 z"
             style="fill:#ffffff;fill-opacity:1;fill-rule:nonzero;stroke:none"
             id="path29574"
             inkscape:connector-curvature="0" />
        </g>
        <g
           id="g29576"
           transform="translate(914.1924,736.1035)">
          <path
             d="M 0,0 0.173,-0.529 H 0.728 L 0.278,-0.855 0.45,-1.385 0,-1.059 l -0.45,-0.326 0.173,0.53 -0.45,0.326 h 0.554 z"
             style="fill:#ffffff;fill-opacity:1;fill-rule:nonzero;stroke:none"
             id="path29578"
             inkscape:connector-curvature="0" />
        </g>
        <g
           id="g29580"
           transform="translate(914.1924,733.7656)">
          <path
             d="M 0,0 0.173,-0.529 H 0.728 L 0.278,-0.857 0.45,-1.385 0,-1.059 l -0.45,-0.326 0.173,0.528 -0.45,0.328 h 0.554 z"
             style="fill:#ffffff;fill-opacity:1;fill-rule:nonzero;stroke:none"
             id="path29582"
             inkscape:connector-curvature="0" />
        </g>
        <g
           id="g29584"
           transform="translate(914.1924,731.4297)">
          <path
             d="M 0,0 0.173,-0.529 H 0.728 L 0.278,-0.857 0.45,-1.385 0,-1.059 l -0.45,-0.326 0.173,0.528 -0.45,0.328 h 0.554 z"
             style="fill:#ffffff;fill-opacity:1;fill-rule:nonzero;stroke:none"
             id="path29586"
             inkscape:connector-curvature="0" />
        </g>
        <g
           id="g29588"
           transform="translate(915.8418,739.6719)">
          <path
             d="M 0,0 0.173,-0.531 H 0.727 L 0.276,-0.857 0.449,-1.387 0,-1.059 l -0.45,-0.328 0.172,0.53 -0.45,0.326 h 0.556 z"
             style="fill:#ffffff;fill-opacity:1;fill-rule:nonzero;stroke:none"
             id="path29590"
             inkscape:connector-curvature="0" />
        </g>
        <g
           id="g29592"
           transform="translate(915.8418,737.3359)">
          <path
             d="M 0,0 0.173,-0.531 H 0.727 L 0.276,-0.855 0.449,-1.387 0,-1.061 l -0.45,-0.326 0.172,0.532 -0.45,0.324 h 0.556 z"
             style="fill:#ffffff;fill-opacity:1;fill-rule:nonzero;stroke:none"
             id="path29594"
             inkscape:connector-curvature="0" />
        </g>
        <g
           id="g29596"
           transform="translate(915.8418,734.9961)">
          <path
             d="M 0,0 0.173,-0.527 H 0.727 L 0.276,-0.854 0.449,-1.385 0,-1.057 l -0.45,-0.328 0.172,0.531 -0.45,0.327 h 0.556 z"
             style="fill:#ffffff;fill-opacity:1;fill-rule:nonzero;stroke:none"
             id="path29598"
             inkscape:connector-curvature="0" />
        </g>
        <g
           id="g29600"
           transform="translate(915.8418,732.6602)">
          <path
             d="M 0,0 0.173,-0.529 H 0.727 L 0.276,-0.857 0.449,-1.385 0,-1.059 l -0.45,-0.326 0.172,0.528 -0.45,0.328 h 0.556 z"
             style="fill:#ffffff;fill-opacity:1;fill-rule:nonzero;stroke:none"
             id="path29602"
             inkscape:connector-curvature="0" />
        </g>
        <g
           id="g29604"
           transform="translate(915.8418,730.3242)">
          <path
             d="M 0,0 0.173,-0.531 H 0.727 L 0.276,-0.855 0.449,-1.387 0,-1.059 l -0.45,-0.328 0.172,0.532 -0.45,0.324 h 0.556 z"
             style="fill:#ffffff;fill-opacity:1;fill-rule:nonzero;stroke:none"
             id="path29606"
             inkscape:connector-curvature="0" />
        </g>
        <g
           id="g29608"
           transform="translate(917.4688,738.4395)">
          <path
             d="M 0,0 0.174,-0.529 H 0.729 L 0.278,-0.855 0.451,-1.385 0,-1.057 l -0.449,-0.328 0.172,0.53 -0.452,0.326 h 0.557 z"
             style="fill:#ffffff;fill-opacity:1;fill-rule:nonzero;stroke:none"
             id="path29610"
             inkscape:connector-curvature="0" />
        </g>
        <g
           id="g29612"
           transform="translate(917.4688,736.1035)">
          <path
             d="M 0,0 0.174,-0.529 H 0.729 L 0.278,-0.855 0.451,-1.385 0,-1.059 l -0.449,-0.326 0.172,0.53 -0.452,0.326 h 0.557 z"
             style="fill:#ffffff;fill-opacity:1;fill-rule:nonzero;stroke:none"
             id="path29614"
             inkscape:connector-curvature="0" />
        </g>
        <g
           id="g29616"
           transform="translate(917.4688,733.7656)">
          <path
             d="M 0,0 0.174,-0.529 H 0.729 L 0.278,-0.857 0.451,-1.385 0,-1.059 l -0.449,-0.326 0.172,0.528 -0.452,0.328 h 0.557 z"
             style="fill:#ffffff;fill-opacity:1;fill-rule:nonzero;stroke:none"
             id="path29618"
             inkscape:connector-curvature="0" />
        </g>
        <g
           id="g29620"
           transform="translate(917.4688,731.4297)">
          <path
             d="M 0,0 0.174,-0.529 H 0.729 L 0.278,-0.857 0.451,-1.385 0,-1.059 l -0.449,-0.326 0.172,0.528 -0.452,0.328 h 0.557 z"
             style="fill:#ffffff;fill-opacity:1;fill-rule:nonzero;stroke:none"
             id="path29622"
             inkscape:connector-curvature="0" />
        </g>
        <g
           id="g29624"
           transform="translate(919.1172,739.6719)">
          <path
             d="M 0,0 0.172,-0.531 H 0.729 L 0.278,-0.857 0.45,-1.387 0,-1.059 l -0.449,-0.328 0.172,0.53 -0.452,0.326 h 0.557 z"
             style="fill:#ffffff;fill-opacity:1;fill-rule:nonzero;stroke:none"
             id="path29626"
             inkscape:connector-curvature="0" />
        </g>
        <g
           id="g29628"
           transform="translate(919.1172,737.3359)">
          <path
             d="M 0,0 0.172,-0.531 H 0.729 L 0.278,-0.855 0.45,-1.387 0,-1.061 l -0.449,-0.326 0.172,0.532 -0.452,0.324 h 0.557 z"
             style="fill:#ffffff;fill-opacity:1;fill-rule:nonzero;stroke:none"
             id="path29630"
             inkscape:connector-curvature="0" />
        </g>
        <g
           id="g29632"
           transform="translate(919.1172,734.9961)">
          <path
             d="M 0,0 0.172,-0.527 H 0.729 L 0.278,-0.854 0.45,-1.385 0,-1.057 l -0.449,-0.328 0.172,0.531 -0.452,0.327 h 0.557 z"
             style="fill:#ffffff;fill-opacity:1;fill-rule:nonzero;stroke:none"
             id="path29634"
             inkscape:connector-curvature="0" />
        </g>
        <g
           id="g29636"
           transform="translate(919.1172,732.6602)">
          <path
             d="M 0,0 0.172,-0.529 H 0.729 L 0.278,-0.857 0.45,-1.385 0,-1.059 l -0.449,-0.326 0.172,0.528 -0.452,0.328 h 0.557 z"
             style="fill:#ffffff;fill-opacity:1;fill-rule:nonzero;stroke:none"
             id="path29638"
             inkscape:connector-curvature="0" />
        </g>
        <g
           id="g29640"
           transform="translate(919.1172,730.3242)">
          <path
             d="M 0,0 0.172,-0.531 H 0.729 L 0.278,-0.855 0.45,-1.387 0,-1.059 l -0.449,-0.328 0.172,0.532 -0.452,0.324 h 0.557 z"
             style="fill:#ffffff;fill-opacity:1;fill-rule:nonzero;stroke:none"
             id="path29642"
             inkscape:connector-curvature="0" />
        </g>
        <g
           id="g29644"
           transform="translate(920.7451,738.4395)">
          <path
             d="M 0,0 0.172,-0.529 H 0.728 L 0.28,-0.855 0.45,-1.385 0,-1.057 l -0.45,-0.328 0.172,0.53 -0.451,0.326 h 0.557 z"
             style="fill:#ffffff;fill-opacity:1;fill-rule:nonzero;stroke:none"
             id="path29646"
             inkscape:connector-curvature="0" />
        </g>
        <g
           id="g29648"
           transform="translate(920.7451,736.1035)">
          <path
             d="M 0,0 0.172,-0.529 H 0.728 L 0.28,-0.855 0.45,-1.385 0,-1.059 l -0.45,-0.326 0.172,0.53 -0.451,0.326 h 0.557 z"
             style="fill:#ffffff;fill-opacity:1;fill-rule:nonzero;stroke:none"
             id="path29650"
             inkscape:connector-curvature="0" />
        </g>
        <g
           id="g29652"
           transform="translate(920.7451,733.7656)">
          <path
             d="M 0,0 0.172,-0.529 H 0.728 L 0.28,-0.857 0.45,-1.385 0,-1.059 l -0.45,-0.326 0.172,0.528 -0.451,0.328 h 0.557 z"
             style="fill:#ffffff;fill-opacity:1;fill-rule:nonzero;stroke:none"
             id="path29654"
             inkscape:connector-curvature="0" />
        </g>
        <g
           id="g29656"
           transform="translate(920.7451,731.4297)">
          <path
             d="M 0,0 0.172,-0.529 H 0.728 L 0.28,-0.857 0.45,-1.385 0,-1.059 l -0.45,-0.326 0.172,0.528 -0.451,0.328 h 0.557 z"
             style="fill:#ffffff;fill-opacity:1;fill-rule:nonzero;stroke:none"
             id="path29658"
             inkscape:connector-curvature="0" />
        </g>
        <g
           id="g29660"
           transform="translate(922.3936,739.6719)">
          <path
             d="m 0,0 0.172,-0.531 h 0.557 l -0.45,-0.326 0.17,-0.53 -0.449,0.328 -0.449,-0.328 0.171,0.53 -0.451,0.326 h 0.558 z"
             style="fill:#ffffff;fill-opacity:1;fill-rule:nonzero;stroke:none"
             id="path29662"
             inkscape:connector-curvature="0" />
        </g>
        <g
           id="g29664"
           transform="translate(922.3936,737.3359)">
          <path
             d="M 0,0 0.172,-0.531 H 0.729 L 0.279,-0.855 0.449,-1.387 0,-1.061 l -0.449,-0.326 0.171,0.532 -0.451,0.324 h 0.558 z"
             style="fill:#ffffff;fill-opacity:1;fill-rule:nonzero;stroke:none"
             id="path29666"
             inkscape:connector-curvature="0" />
        </g>
        <g
           id="g29668"
           transform="translate(922.3936,734.9961)">
          <path
             d="M 0,0 0.172,-0.527 H 0.729 L 0.279,-0.854 0.449,-1.385 0,-1.057 l -0.449,-0.328 0.171,0.531 -0.451,0.327 h 0.558 z"
             style="fill:#ffffff;fill-opacity:1;fill-rule:nonzero;stroke:none"
             id="path29670"
             inkscape:connector-curvature="0" />
        </g>
        <g
           id="g29672"
           transform="translate(922.3936,732.6602)">
          <path
             d="M 0,0 0.172,-0.529 H 0.729 L 0.279,-0.857 0.449,-1.385 0,-1.059 l -0.449,-0.326 0.171,0.528 -0.451,0.328 h 0.558 z"
             style="fill:#ffffff;fill-opacity:1;fill-rule:nonzero;stroke:none"
             id="path29674"
             inkscape:connector-curvature="0" />
        </g>
        <g
           id="g29676"
           transform="translate(922.3936,730.3242)">
          <path
             d="M 0,0 0.172,-0.531 H 0.729 L 0.279,-0.855 0.449,-1.387 0,-1.059 l -0.449,-0.328 0.171,0.532 -0.451,0.324 h 0.558 z"
             style="fill:#ffffff;fill-opacity:1;fill-rule:nonzero;stroke:none"
             id="path29678"
             inkscape:connector-curvature="0" />
        </g>
        <g
           id="g29680"
           transform="translate(924.0225,738.4395)">
          <path
             d="M 0,0 0.171,-0.529 H 0.728 L 0.277,-0.855 0.45,-1.385 0,-1.057 l -0.451,-0.328 0.172,0.53 -0.45,0.326 h 0.558 z"
             style="fill:#ffffff;fill-opacity:1;fill-rule:nonzero;stroke:none"
             id="path29682"
             inkscape:connector-curvature="0" />
        </g>
        <g
           id="g29684"
           transform="translate(924.0225,736.1035)">
          <path
             d="M 0,0 0.171,-0.529 H 0.728 L 0.277,-0.855 0.45,-1.385 0,-1.059 l -0.451,-0.326 0.172,0.53 -0.45,0.326 h 0.558 z"
             style="fill:#ffffff;fill-opacity:1;fill-rule:nonzero;stroke:none"
             id="path29686"
             inkscape:connector-curvature="0" />
        </g>
        <g
           id="g29688"
           transform="translate(924.0225,733.7656)">
          <path
             d="M 0,0 0.171,-0.529 H 0.728 L 0.277,-0.857 0.45,-1.385 0,-1.059 l -0.451,-0.326 0.172,0.528 -0.45,0.328 h 0.558 z"
             style="fill:#ffffff;fill-opacity:1;fill-rule:nonzero;stroke:none"
             id="path29690"
             inkscape:connector-curvature="0" />
        </g>
        <g
           id="g29692"
           transform="translate(924.0225,731.4297)">
          <path
             d="M 0,0 0.171,-0.529 H 0.728 L 0.277,-0.857 0.45,-1.385 0,-1.059 l -0.451,-0.326 0.172,0.528 -0.45,0.328 h 0.558 z"
             style="fill:#ffffff;fill-opacity:1;fill-rule:nonzero;stroke:none"
             id="path29694"
             inkscape:connector-curvature="0" />
        </g>
        <g
           id="g29696"
           transform="translate(925.6699,739.6719)">
          <path
             d="M 0,0 0.173,-0.531 H 0.728 L 0.278,-0.857 0.45,-1.387 0,-1.059 l -0.45,-0.328 0.173,0.53 -0.452,0.326 h 0.557 z"
             style="fill:#ffffff;fill-opacity:1;fill-rule:nonzero;stroke:none"
             id="path29698"
             inkscape:connector-curvature="0" />
        </g>
        <g
           id="g29700"
           transform="translate(925.6699,737.3359)">
          <path
             d="M 0,0 0.173,-0.531 H 0.728 L 0.278,-0.855 0.45,-1.387 0,-1.061 l -0.45,-0.326 0.173,0.532 -0.452,0.324 h 0.557 z"
             style="fill:#ffffff;fill-opacity:1;fill-rule:nonzero;stroke:none"
             id="path29702"
             inkscape:connector-curvature="0" />
        </g>
        <g
           id="g29704"
           transform="translate(925.6699,734.9961)">
          <path
             d="M 0,0 0.173,-0.527 H 0.728 L 0.278,-0.854 0.45,-1.385 0,-1.057 l -0.45,-0.328 0.173,0.531 -0.452,0.327 h 0.557 z"
             style="fill:#ffffff;fill-opacity:1;fill-rule:nonzero;stroke:none"
             id="path29706"
             inkscape:connector-curvature="0" />
        </g>
        <g
           id="g29708"
           transform="translate(925.6699,732.6602)">
          <path
             d="M 0,0 0.173,-0.529 H 0.728 L 0.278,-0.857 0.45,-1.385 0,-1.059 l -0.45,-0.326 0.173,0.528 -0.452,0.328 h 0.557 z"
             style="fill:#ffffff;fill-opacity:1;fill-rule:nonzero;stroke:none"
             id="path29710"
             inkscape:connector-curvature="0" />
        </g>
        <g
           id="g29712"
           transform="translate(925.6699,730.3242)">
          <path
             d="M 0,0 0.173,-0.531 H 0.728 L 0.278,-0.855 0.45,-1.387 0,-1.059 l -0.45,-0.328 0.173,0.532 -0.452,0.324 h 0.557 z"
             style="fill:#ffffff;fill-opacity:1;fill-rule:nonzero;stroke:none"
             id="path29714"
             inkscape:connector-curvature="0" />
        </g>
        <g
           id="g29716">
          <g
             id="g29718" />
          <g
             id="g29814">
            <g
               clip-path="url(#clipPath29722)"
               id="g29812"
               style="opacity:0.5">
              <g
                 id="g29810">
                <g
                   clip-path="url(#clipPath29726)"
                   id="g29808">
                  <g
                     id="g29806">
                    <g
                       id="g29786" />
                    <g
                       mask="url(#mask29746)"
                       id="g29804">
                      <g
                         id="g29788" />
                      <g
                         id="g29802">
                        <g
                           clip-path="url(#clipPath29774)"
                           id="g29800">
                          <g
                             id="g29798">
                            <g
                               clip-path="url(#clipPath29778)"
                               id="g29796">
                              <g
                                 id="g29794">
                                <g
                                   id="g29792">
                                <path
                                   d="m 917.505,727.189 0.034,13.698 19.527,-0.051 -0.035,-13.697 z"
                                   style="fill:url(#linearGradient29784);stroke:none"
                                   id="path29790"
                                   inkscape:connector-curvature="0" />
                                </g>
                              </g>
                            </g>
                          </g>
                        </g>
                      </g>
                    </g>
                  </g>
                </g>
              </g>
            </g>
          </g>
        </g>
      </g>
    </g>
  </g>
</svg>
