<?xml version="1.0" encoding="UTF-8" standalone="no"?>
<!-- Created with Inkscape (http://www.inkscape.org/) -->

<svg
   xmlns:dc="http://purl.org/dc/elements/1.1/"
   xmlns:cc="http://creativecommons.org/ns#"
   xmlns:rdf="http://www.w3.org/1999/02/22-rdf-syntax-ns#"
   xmlns:svg="http://www.w3.org/2000/svg"
   xmlns="http://www.w3.org/2000/svg"
   xmlns:sodipodi="http://sodipodi.sourceforge.net/DTD/sodipodi-0.dtd"
   xmlns:inkscape="http://www.inkscape.org/namespaces/inkscape"
   width="14.690151mm"
   height="14.543302mm"
   viewBox="0 0 14.690151 14.543302"
   version="1.1"
   id="svg94375"
   inkscape:version="0.92.2pre0 (973e216, 2017-07-25)"
   sodipodi:docname="instagram.svg">
  <defs
     id="defs94369" />
  <sodipodi:namedview
     id="base"
     pagecolor="#ffffff"
     bordercolor="#666666"
     borderopacity="1.0"
     inkscape:pageopacity="0.0"
     inkscape:pageshadow="2"
     inkscape:zoom="1"
     inkscape:cx="27.760903"
     inkscape:cy="27.483405"
     inkscape:document-units="mm"
     inkscape:current-layer="layer1"
     showgrid="false"
     fit-margin-top="0"
     fit-margin-left="0"
     fit-margin-right="0"
     fit-margin-bottom="0"
     inkscape:window-width="1920"
     inkscape:window-height="1052"
     inkscape:window-x="0"
     inkscape:window-y="0"
     inkscape:window-maximized="1" />
  <metadata
     id="metadata94372">
    <rdf:RDF>
      <cc:Work
         rdf:about="">
        <dc:format>image/svg+xml</dc:format>
        <dc:type
           rdf:resource="http://purl.org/dc/dcmitype/StillImage" />
        <dc:title></dc:title>
      </cc:Work>
    </rdf:RDF>
  </metadata>
  <g
     inkscape:label="Capa 1"
     inkscape:groupmode="layer"
     id="layer1"
     transform="translate(-98.488261,-141.56168)">
    <g
       id="g35522"
       transform="matrix(0.35277777,0,0,-0.35277777,110.91746,155.95786)">
      <path
         d="m 0,0 h -3.496 -13.312 -10.989 c -1.839,0 -3.472,0.348 -4.882,1.67 -1.37,1.287 -1.698,3.055 -1.698,4.832 v 24.096 c 0,3.691 -0.522,8.216 3.987,9.621 0.976,0.302 2.192,0.181 3.206,0.181 h 5.175 21.99 c 3.166,0 5.675,-2.72 5.675,-5.828 V 31.951 19.229 5.59 C 5.551,2.438 3.203,0 0,0 m 1.182,40.727 c -0.825,0.138 -1.739,0.058 -2.571,0.058 h -24.673 c -3.195,0 -6.293,-0.029 -8.234,-3.111 -1.369,-2.174 -0.833,-5.713 -0.833,-8.156 V 5.959 c 0,-3.877 2.888,-6.344 6.636,-6.344 h 10.247 15.587 c 1.038,0 2.118,-0.084 3.153,0.02 3.295,0.334 5.802,2.797 5.915,6.156 v 21.494 7.524 c 0,3.048 -2.307,5.42 -5.227,5.918"
         style="fill:#ef3b39;fill-opacity:1;fill-rule:nonzero;stroke:none"
         id="path35524"
         inkscape:connector-curvature="0" />
    </g>
    <g
       id="g35526"
       transform="matrix(0.35277777,0,0,-0.35277777,109.73614,149.89724)">
      <path
         d="m 0,0 v -5.449 c 0,-1.85 -0.858,-3.399 -2.94,-3.399 h -10.834 c -2.562,0 -8.646,-1.072 -8.646,2.934 v 9.566 5.77 c 0,1.848 -0.18,4.326 2.448,4.506 h 10.201 5.878 C -1.994,13.928 0,13.338 0,10.992 Z m 0.645,12.039 c -0.378,1.84 -2.236,2.283 -3.817,2.283 h -12.457 -3.949 c -0.026,0.002 -0.056,0.002 -0.092,0 -0.019,0 -0.039,-0.002 -0.06,-0.006 -1.907,-0.154 -3.442,-1.394 -3.442,-3.423 V 6.498 -5.682 c 0,-1.996 1.148,-3.422 3.2,-3.562 1.094,-0.072 2.219,0 3.314,0 h 12.765 c 1.381,0 2.578,0.041 3.694,1.023 1.09,0.959 0.951,2.418 0.951,3.719 V 8.395 c 0,1.187 0.134,2.472 -0.107,3.644"
         style="fill:#ef3b39;fill-opacity:1;fill-rule:nonzero;stroke:none"
         id="path35528"
         inkscape:connector-curvature="0" />
    </g>
    <g
       id="g35530"
       transform="matrix(0.35277777,0,0,-0.35277777,107.62048,145.89127)">
      <path
         d="m 0,0 c 0.896,0.016 2.51,0.316 3.163,-0.338 0.345,-0.346 0.204,-1.242 0.204,-1.674 0,-0.537 0.036,-1.09 -0.026,-1.625 -0.093,-0.804 -1.403,-0.554 -1.893,-0.554 -0.616,0 -1.354,-0.139 -1.83,0.337 -0.345,0.344 -0.204,1.241 -0.204,1.67 0,0.526 -0.24,2.055 0.586,2.184 m 2.55,-4.586 c 2.039,0 1.569,2.424 1.569,3.768 0,1.734 -2.81,1.211 -3.887,1.211 H 0.216 C 0.192,0.391 0.166,0.391 0.138,0.387 -1.82,0.158 -1.338,-1.992 -1.338,-3.428 c 0,-1.672 2.874,-1.158 3.888,-1.158"
         style="fill:#ef3b39;fill-opacity:1;fill-rule:nonzero;stroke:none"
         id="path35532"
         inkscape:connector-curvature="0" />
    </g>
    <g
       id="g35534"
       transform="matrix(0.35277777,0,0,-0.35277777,107.93126,152.07868)">
      <path
         d="m 0,0 h -6.253 -5.875 c -0.895,0 -2.6,-0.363 -2.6,0.992 v 9.321 h 0.393 0.819 c 0.553,0 0.152,0.097 0.037,-0.334 -0.368,-1.383 -0.152,-2.879 0.357,-4.19 0.917,-2.361 3.195,-3.879 5.609,-4.34 5.227,-1 9.938,3.725 8.791,8.864 H 2.496 V 0.883 C 2.496,-0.424 0.87,0 0,0 m 3.249,10.236 v 0.375 c 0,0.082 -0.118,0.11 -0.261,0.096 H 0.984 c -0.123,0 -0.582,-0.09 -0.526,-0.297 1.229,-4.603 -2.262,-9.027 -7.107,-8.633 -4.349,0.354 -7.031,4.735 -5.954,8.786 0.034,0.123 -0.143,0.144 -0.223,0.144 h -2.127 c -0.167,0 -0.526,-0.08 -0.526,-0.297 V 0.631 c 0,-1.315 1.846,-1.027 2.678,-1.027 h 6.246 6.451 c 0.938,0 2.22,-0.223 3.004,0.419 0.824,0.672 0.349,3.274 0.349,4.135 z"
         style="fill:#ef3b39;fill-opacity:1;fill-rule:nonzero;stroke:none"
         id="path35536"
         inkscape:connector-curvature="0" />
    </g>
    <path
       d="m 105.73602,147.46294 c 0.77258,0.0317 1.3716,0.5341 1.53846,1.28517 0.20002,0.89817 -0.55704,1.72085 -1.43228,1.75683 -1.91064,0.0787 -2.09444,-2.96016 -0.10618,-3.042 m 0,3.18135 c 0.90558,0.0377 1.70426,-0.6604 1.82103,-1.54164 0.13265,-1.00013 -0.75812,-1.71697 -1.66969,-1.77624 -0.0117,-0.003 -0.0258,-0.004 -0.0452,-0.003 -0.007,0 -0.0155,3.4e-4 -0.024,0.002 -0.89994,0.0469 -1.67358,0.60925 -1.7967,1.54023 -0.1344,1.016 0.78811,1.74096 1.7145,1.77906"
       style="fill:#ef3b39;fill-opacity:1;fill-rule:nonzero;stroke:none;stroke-width:0.35277775"
       id="path35540"
       inkscape:connector-curvature="0" />
  </g>
</svg>
